<?xml version="1.0" encoding="utf-8"?>
<!-- Generator: Adobe Illustrator 23.0.3, SVG Export Plug-In . SVG Version: 6.00 Build 0)  -->
<svg version="1.1" id="Camada_1" xmlns="http://www.w3.org/2000/svg" xmlns:xlink="http://www.w3.org/1999/xlink" x="0px" y="0px"
	 viewBox="0 0 200 200" style="enable-background:new 0 0 200 200;" xml:space="preserve">
<g>
	<path fill="#ffba00" d="M102.5,115.4c-1.3,1.3-3.3,1.3-4.6,0l-11.1-11l-31.6,31.6h89.5l-31.4-31.4L102.5,115.4z"/>
	<polygon fill="#ffba00" points="50.6,68.5 50.6,131.4 82.2,99.8 	"/>
	<polygon fill="#ffba00" points="144.8,63.9 55.3,63.9 100.2,108.5 	"/>
	<path fill="#ffba00" d="M0,0v200h200V0H0z M156,132.8c0,5.4-4.4,9.8-9.8,9.8H53.9c-5.4,0-9.8-4.4-9.8-9.8V67.2c0-5.4,4.4-9.8,9.8-9.8h92.2
		c5.4,0,9.8,4.4,9.8,9.8V132.8z"/>
	<polygon fill="#ffba00" points="149.4,131.4 149.4,68.6 118,100 	"/>
</g>
</svg>
