<?xml version="1.0" encoding="utf-8"?>
<!-- Generator: Adobe Illustrator 23.0.3, SVG Export Plug-In . SVG Version: 6.00 Build 0)  -->
<svg version="1.1" id="Capa_1" xmlns="http://www.w3.org/2000/svg" xmlns:xlink="http://www.w3.org/1999/xlink" x="0px" y="0px"
	 viewBox="0 0 512 512" style="enable-background:new 0 0 512 512;" xml:space="preserve">
<style type="text/css">
	.st0{fill:#FFFFFF;}
</style>
<path class="st0" d="M256,32c123.5,0,224,100.5,224,224S379.5,480,256,480S32,379.5,32,256S132.5,32,256,32 M256,0
	C114.6,0,0,114.6,0,256s114.6,256,256,256s256-114.6,256-256S397.4,0,256,0L256,0z M256,284.7l-24.9-21.8L160,323.9
	c2.6,2.4,6.1,3.9,9.9,3.9H342c3.8,0,7.3-1.5,9.9-3.9l-71.1-60.9L256,284.7z M352,188.1c-2.6-2.4-6.1-3.9-9.9-3.9H170
	c-3.8,0-7.3,1.5-9.9,3.9l95.9,82.2L352,188.1z M155.5,196.8v119.3l69.4-59L155.5,196.8z M287.1,257.1l69.4,59V196.8L287.1,257.1z"/>
</svg>
