<?xml version="1.0" encoding="utf-8"?>
<!-- Generator: Adobe Illustrator 23.0.3, SVG Export Plug-In . SVG Version: 6.00 Build 0)  -->
<svg version="1.1" id="Camada_1" xmlns="http://www.w3.org/2000/svg" xmlns:xlink="http://www.w3.org/1999/xlink" x="0px" y="0px"
	 viewBox="0 0 500 500" style="enable-background:new 0 0 500 500;" xml:space="preserve">
<g>
	<path fill="#3B5998" d="M250,21.4c126.2,0,228.6,102.3,228.6,228.6S376.2,478.6,250,478.6S21.4,376.2,21.4,250S123.8,21.4,250,21.4
		 M250,1.4c-33.5,0-66.1,6.6-96.8,19.5c-29.6,12.5-56.2,30.4-79,53.3s-40.7,49.4-53.3,79C8,183.9,1.4,216.5,1.4,250
		S8,316.1,21,346.8c12.5,29.6,30.4,56.2,53.3,79c22.8,22.8,49.4,40.7,79,53.3c30.7,13,63.2,19.5,96.8,19.5s66.1-6.6,96.8-19.5
		c29.6-12.5,56.2-30.4,79-53.3c22.8-22.8,40.7-49.4,53.3-79c13-30.7,19.5-63.2,19.5-96.8s-6.6-66.1-19.5-96.8
		c-12.5-29.6-30.4-56.2-53.3-79c-22.8-22.8-49.4-40.7-79-53.3C316.1,8,283.5,1.4,250,1.4L250,1.4z"/>
</g>
<g>
	<path fill="#3B5998" d="M312.5,125.1l-32.4-0.1c-36.4,0-60,24.1-60,61.5v28.4h-32.6c-2.8,0-5.1,2.3-5.1,5.1v41.1
		c0,2.8,2.3,5.1,5.1,5.1h32.6v103.7c0,2.8,2.3,5.1,5.1,5.1h42.5c2.8,0,5.1-2.3,5.1-5.1V266.2h38.1c2.8,0,5.1-2.3,5.1-5.1l0-41.1
		c0-1.4-0.5-2.6-1.5-3.6c-1-1-2.3-1.5-3.6-1.5h-38.1v-24c0-11.6,2.8-17.4,17.8-17.4l21.8,0c2.8,0,5.1-2.3,5.1-5.1v-38.2
		C317.6,127.3,315.3,125.1,312.5,125.1z"/>
</g>
</svg>
