<?xml version="1.0" encoding="utf-8"?>
<!-- Generator: Adobe Illustrator 21.1.0, SVG Export Plug-In . SVG Version: 6.00 Build 0)  -->
<svg version="1.1" id="Camada_1" xmlns="http://www.w3.org/2000/svg" xmlns:xlink="http://www.w3.org/1999/xlink" x="0px" y="0px"
	 viewBox="0 0 465.3 109.3" style="enable-background:new 0 0 465.3 109.3;" xml:space="preserve">
<g>
	<g>
		<path fill="#fff" d="M195.2,45.4c0.1-1-0.2-1.6-0.6-2c-0.3-0.4-0.9-0.8-1.9-0.8h-10.1c-1.5,0-2.5,0.8-2.8,2.2l-5.3,29.9
			c-1.4,0.7-3,1.1-4.9,1.1c-1.4,0-2.5-0.3-3.3-1c-0.7-0.6-1.1-1.6-1.1-3c0-0.7,0.1-1.4,0.2-2.1l4.4-24.3c0.2-0.8,0-1.5-0.5-2.1
			c-0.3-0.4-0.9-0.8-2-0.8h-10.1c-1.5,0-2.5,0.8-2.7,2.2l-4.3,23.3c-0.2,1.5-0.4,3-0.4,4.7c0,5,1.4,9,4.3,12c2.9,3,6.9,4.5,11.8,4.5
			c1.9,0,3.9-0.3,6-0.8c-0.5,1.9-1.2,3.3-2.2,4.2c-1.3,1.2-3.2,1.7-5.7,1.7c-3.4,0-6.3-0.9-8.8-2.6c-0.5-0.4-1.1-0.6-1.7-0.6
			c-0.8,0-1.6,0.4-2,1.2l-5.4,6.9c-0.4,0.5-0.6,1.1-0.6,1.7c0,0.8,0.3,1.5,1,1.9c2.1,1.8,4.5,3.1,7.1,4c2.7,0.9,5.8,1.3,9.4,1.3
			c5,0,9.2-0.8,12.5-2.4c3.3-1.6,6-4.1,8.1-7.5c2-3.3,3.5-7.7,4.4-13.2L195.2,45.4L195.2,45.4z"/>
		<path fill="#fff" d="M222.5,45.5c0.2-1-0.1-1.7-0.5-2.1c-0.3-0.4-1-0.9-2.1-0.9h-6l0.5-9.5c0.1-1-0.3-1.5-0.6-1.9
			c-0.3-0.4-1-0.7-2-0.7H203c-1.5,0-2.5,0.7-2.8,2.2L193.5,71c-0.3,1.6-0.5,3.3-0.5,5.3c0,4.9,1,7.9,3.7,10.5
			c2.3,2.2,6.4,1.9,11.1,1.9h4.7c1.8,0,3.3-1.1,3.6-2.8l1-5.7c0.2-0.8,0.1-1.6-0.3-2.2c-0.4-0.5-1.1-0.9-1.9-0.9h-2.7
			c-1.3,0-2.2-0.2-2.7-0.7c-0.5-0.5-0.7-1.2-0.7-2.3c0-0.3,0-0.7,0.2-1.6l2.9-16.3h6.4c1.5,0,2.5-0.9,2.8-2.4L222.5,45.5z"/>
		<path fill="#fff" d="M254.8,46.3c-3.1-2.4-7.2-3.6-12.2-3.6c-5.3,0-10,1.4-13.8,4.2c-3.9,2.8-5.3,5.7-6.2,11l-2.3,12.9
			c-0.2,1.6-0.3,2.6-0.3,3.3c0,4.6,0.7,8.2,4,10.9c3.2,2.6,7.4,4,12.5,4c6.6,0,12.5-1.7,17.4-5.1c0.7-0.4,1.1-1.1,1.1-2
			c0-0.2,0-0.4-0.2-1.1l0-0.1l-3.4-6.3c-0.5-1.1-1.4-1.3-1.9-1.3c-0.5,0-1,0.2-1.5,0.5c-3.4,2-6.8,3.1-10,3.1
			c-1.8,0-3.1-0.4-3.9-1.1c-0.6-0.6-0.8-1.4-0.8-2.5c0-0.2,0-0.7,0.2-1.8l0.1-0.4h21.7c1.3,0,2.2-0.6,2.5-1.9l1.4-7.8
			c0.3-1.7,0.4-3,0.4-4.1C259.6,52.3,258,48.7,254.8,46.3z M245.5,60l-0.2,1.4h-9.8l0.2-1.1c0.3-1.7,1-3,2.1-3.9
			c1-0.9,2.3-1.3,3.8-1.3c1.4,0,2.4,0.3,3.1,1c0.7,0.7,1,1.5,1,2.7C245.6,58.8,245.6,59.3,245.5,60z"/>
		<g>
			<path fill="#fff" d="M114.8,76.2l1.7-11.3c0.3-1.9-1.2-3.6-3.1-3.6l-10.9,0c-1.5,0-2.9,1.1-3.1,2.7l-1.7,11.3
				c-0.3,1.9,1.2,3.6,3.1,3.6h10.9l0,0C113.2,78.9,114.6,77.8,114.8,76.2z"/>
			<path fill="#fff" d="M150.3,49c-0.3-5.2-2.3-8.4-7.5-10.2c-0.7-0.2-1.4-0.4-2.1-0.4c-4.2,0-20.1,0-20.4,0l1.4-9.7l0.7-4.4
				l2.1-13.5l0.8-5.4c0.4-2.4-1.5-4.5-3.9-4.5h-2.9h-3.5c-3.8,0-6.6,3.2-7.7,11.2l0,0l-8.4,55.7c-0.4,3,4.9,6.9,8.3,9.1
				c1.4,0.9,2.4,1.5,2.4,1.5c0.1,0.1,0.3,0.2,0.5,0.2c0.7,0.3,1.6,0.4,2.3,0.3c1-0.2,2.2-0.9,2.5-2.6c0,0,2.6-18,2.8-19.7
				c0.1-0.7,0.5-1.4,1.1-1.9c0.8-0.7,1.4-1,2.5-1l1.6,0l5.6,0c0,0,0,0,0.1,0l0.2,0c0.3,0,0.8,0,1.2,0.1c2.8,0.8,3.7,2.4,3.7,5.1
				c0,1.3-1.6,9.3-1.8,10.6c-0.6,3.6-3.5,5.2-6,5.3l-2.5,0c-0.3,0-0.5,0-0.8,0c-5-0.2-5.6,3.9-5.7,5c-0.2,1.7-0.3,3.1-0.3,3.7
				c0,0.1,0,0.3,0,0.4c0.2,2.7,2.6,4.8,5.4,4.8l10.3,0c6-0.2,12.5-4.9,14-13.4c0.5-3.1,4.2-21.7,4.2-24.9
				C150.3,50,150.3,49.5,150.3,49z"/>
		</g>
	</g>
	<g>
		<g>
			<path fill="#fff" d="M319.8,76.2l1.7-11.3c0.3-1.9-1.2-3.6-3.1-3.6l-10.9,0c-1.5,0-2.9,1.1-3.1,2.7l-1.7,11.3
				c-0.3,1.9,1.2,3.6,3.1,3.6h10.9l0,0C318.2,78.9,319.5,77.8,319.8,76.2z"/>
			<path fill="#fff" d="M355.2,49c-0.3-5.2-2.3-8.4-7.5-10.2c-0.7-0.2-1.4-0.4-2.1-0.4c-4.2,0-20.1,0-20.4,0l1.4-9.7l0.7-4.4
				l2.1-13.5l0.8-5.4c0.4-2.4-1.5-4.5-3.9-4.5h-2.9h-3.5c-3.8,0-6.6,3.2-7.7,11.2l0,0l-8.4,55.7c-0.4,3,4.9,6.9,8.3,9.1
				c1.4,0.9,2.4,1.5,2.4,1.5c0.1,0.1,0.3,0.2,0.5,0.2c0.7,0.3,1.6,0.4,2.3,0.3c1-0.2,2.2-0.9,2.5-2.6c0,0,2.6-18,2.8-19.7
				c0.1-0.7,0.5-1.4,1.1-1.9c0.8-0.7,1.4-1,2.5-1l1.6,0l5.6,0c0,0,0,0,0.1,0l0.2,0c0.3,0,0.8,0,1.2,0.1c2.8,0.8,3.7,2.4,3.7,5.1
				c0,1.3-1.6,9.3-1.8,10.6c-0.6,3.6-3.5,5.2-6,5.3l-2.5,0c-0.3,0-0.5,0-0.8,0c-5-0.2-5.6,3.9-5.7,5c-0.2,1.7-0.3,3.1-0.3,3.7
				c0,0.1,0,0.3,0,0.4c0.2,2.7,2.6,4.8,5.4,4.8l10.3,0c6-0.2,12.5-4.9,14-13.4c0.5-3.1,4.2-21.7,4.2-24.9
				C355.3,50,355.2,49.5,355.2,49z"/>
		</g>
		<path fill="#fff" d="M400,45.4c0.1-1-0.2-1.6-0.6-2c-0.3-0.4-0.9-0.8-1.9-0.8h-10.1c-1.5,0-2.5,0.8-2.8,2.2l-5.3,29.9
			c-1.4,0.7-3,1.1-4.9,1.1c-1.4,0-2.5-0.3-3.3-1c-0.7-0.6-1.1-1.6-1.1-3c0-0.7,0.1-1.4,0.2-2.1l4.4-24.3c0.2-0.8,0-1.5-0.5-2.1
			c-0.3-0.4-0.9-0.8-2-0.8h-10.1c-1.5,0-2.5,0.8-2.7,2.2l-4.3,23.3c-0.2,1.5-0.4,3-0.4,4.7c0,5,1.4,9,4.3,12c2.9,3,6.9,4.5,11.8,4.5
			c1.9,0,3.9-0.3,6-0.8c-0.5,1.9-1.2,3.3-2.2,4.2c-1.3,1.2-3.2,1.7-5.7,1.7c-3.4,0-6.3-0.9-8.8-2.6c-0.5-0.4-1.1-0.6-1.7-0.6
			c-0.8,0-1.6,0.4-2,1.2l-5.4,6.9c-0.4,0.5-0.6,1.1-0.6,1.7c0,0.8,0.3,1.5,1,1.9c2.1,1.8,4.5,3.1,7.1,4c2.7,0.9,5.8,1.3,9.4,1.3
			c5,0,9.2-0.8,12.5-2.4c3.3-1.6,6-4.1,8.1-7.5c2-3.3,3.5-7.7,4.4-13.2L400,45.4L400,45.4z"/>
		<path fill="#fff" d="M427.4,45.5c0.2-1-0.1-1.7-0.5-2.1c-0.3-0.4-1-0.9-2.1-0.9h-6l0.5-9.5c0.1-1-0.3-1.5-0.6-1.9
			c-0.3-0.4-1-0.7-2-0.7h-8.8c-1.5,0-2.5,0.7-2.8,2.2L398.3,71c-0.3,1.6-0.5,3.3-0.5,5.3c0,4.9,1,7.9,3.7,10.5
			c2.3,2.2,6.4,1.9,11.1,1.9h4.7c1.8,0,3.3-1.1,3.6-2.8l1-5.7c0.2-0.8,0.1-1.6-0.3-2.2c-0.4-0.5-1.1-0.9-1.9-0.9h-2.7
			c-1.3,0-2.2-0.2-2.7-0.7c-0.5-0.5-0.7-1.2-0.7-2.3c0-0.3,0-0.7,0.2-1.6l2.9-16.3h6.4c1.5,0,2.5-0.9,2.8-2.4L427.4,45.5z"/>
		<path fill="#fff" d="M459.7,46.2c-3.1-2.4-7.2-3.6-12.2-3.6c-5.3,0-10,1.4-13.8,4.2c-3.9,2.8-5.3,5.7-6.2,11l-2.3,12.9
			c-0.2,1.6-0.3,2.6-0.3,3.3c0,4.6,0.7,8.2,4,10.9c3.2,2.6,7.4,4,12.5,4c6.6,0,12.5-1.7,17.4-5.1c0.7-0.4,1.1-1.1,1.1-2
			c0-0.2,0-0.4-0.2-1.1l0-0.1l-3.4-6.3c-0.5-1.1-1.4-1.3-1.9-1.3c-0.5,0-1,0.2-1.5,0.5c-3.4,2-6.8,3.1-10,3.1
			c-1.8,0-3.1-0.4-3.9-1.1c-0.6-0.6-0.8-1.4-0.8-2.5c0-0.2,0-0.7,0.2-1.8l0.1-0.4h21.7c1.3,0,2.2-0.6,2.5-1.9l1.4-7.8
			c0.3-1.7,0.4-3,0.4-4.1C464.4,52.3,462.8,48.7,459.7,46.2z M450.4,60l-0.2,1.4h-9.8l0.2-1.1c0.3-1.7,1-3,2.1-3.9
			c1-0.9,2.3-1.3,3.8-1.3c1.4,0,2.4,0.3,3.1,1c0.7,0.7,1,1.5,1,2.7C450.5,58.7,450.5,59.2,450.4,60z"/>
	</g>
	<path fill="#fff" d="M271.2,74.7c-1.6-3-2.6-6-2.9-9.1c-0.1-1.4-0.1-3,0.1-4.6c0.6-4.3,2.7-8.6,6.4-12.8c0.2-0.2-0.1-0.3-0.1-0.3
		h-2.6c-0.4,0-0.6,0.1-0.8,0.3c-3.7,4.2-5.8,8.5-6.4,12.8c-0.2,1.6-0.3,3.1-0.1,4.6c0.3,3,1.2,6.1,2.9,9.1c0.1,0.3,0.4,0.4,0.8,0.4
		h2.8C271.4,75.1,271.3,75,271.2,74.7z"/>
	<path fill="#fff" d="M293,48.4c1.6,3,2.6,6,2.9,9.1c0.1,1.4,0.1,3-0.1,4.6c-0.6,4.3-2.7,8.6-6.4,12.8c-0.2,0.2,0.1,0.3,0.1,0.3h2.6
		c0.4,0,0.6-0.1,0.8-0.3c3.7-4.2,5.8-8.5,6.4-12.8c0.2-1.6,0.3-3.1,0.1-4.6c-0.3-3-1.2-6.1-2.9-9.1c-0.1-0.3-0.4-0.4-0.8-0.4H293
		C292.8,48,292.9,48.1,293,48.4z"/>
	<path fill="#fff" d="M290,51.2c-1.5-1.5-3.7-2.2-6.4-2.2c-1.8,0-3.5,0.2-5.1,0.6c-1.6,0.4-3,0.9-4,1.5c-0.2,0.1-0.6,0.3-0.6,1
		c0,0.1,0,0.2,0.1,0.7l1.4,3.6c0.3,0.7,0.9,0.8,1.1,0.8c0.2,0,0.4-0.1,0.7-0.2c0.6-0.3,1.4-0.5,2.2-0.7c0.9-0.2,1.8-0.3,2.7-0.3
		c1.2,0,1.7,0.2,2,0.4c0.3,0.3,0.5,0.7,0.5,1.2c0,0.4,0,0.7-0.1,1l0,0.1c-1-0.2-2.1-0.2-3.2-0.2c-6.2,0-9.7,2.2-10.5,6.6
		c-0.1,0.6-0.1,1.1-0.1,1.6c0,2.2,0.8,4,2.5,5.4c1.6,1.3,3.8,2,6.6,2c3.2,0,6.3-0.5,9.2-1.6c0.4-0.1,0.9-0.5,1.1-1.3l2-11
		c0.2-1,0.3-1.9,0.3-2.7C292.3,54.8,291.5,52.7,290,51.2z M283.1,67.1c-0.9,0.2-1.7,0.2-2.5,0.2c-2.1,0-2.1-0.9-2.1-1.3
		c0-0.9,0.3-1.9,2.9-1.9c0.7,0,1.4,0.1,2.1,0.2L283.1,67.1z"/>
	<g>
		<path fill="#fff" d="M15.4,51.7l-2.6,17c-0.8,4.9,3,9.3,8,9.4l16.1,0.1c4,0,7.5-2.9,8.1-6.9l2.6-17.1c0.7-4.9-3.1-9.3-8-9.3
			l-16.1,0C19.4,44.8,16,47.7,15.4,51.7z"/>
		<path fill="#fff" d="M14.2,39.7l1.3-8.8c0.2-1.5-0.9-2.8-2.4-2.8l-8.5,0c-1.2,0-2.2,0.9-2.4,2.1L0.8,39c-0.2,1.5,0.9,2.8,2.4,2.8
			h8.5h0C13,41.8,14,40.9,14.2,39.7z"/>
		<path fill="#fff" d="M59,86.6l1.3-8.8c0.2-1.5-0.9-2.8-2.4-2.8l-8.5,0c-1.2,0-2.2,0.9-2.4,2.1l-1.3,8.8c-0.2,1.5,0.9,2.8,2.4,2.8
			h8.5l0,0C57.8,88.6,58.8,87.8,59,86.6z"/>
		<path fill="#fff" d="M67.4,0.8l-37.4,0c-4,0-7.5,3-8,7L21,15.1l-3.3,21.9c-0.4,2.5,1.5,4.7,4,4.7h21.2c5,0,8.8,4.4,8,9.3
			l-2.4,16.2c-0.4,2.4,1.5,4.7,4,4.7L77.9,72c4,0,7.5-2.9,8.1-6.9l1.1-7.7l1.3-8.3c0.5-2.9,1.8-11.2,3.1-20.2
			C93.8,14.2,82.4,0.9,67.4,0.8z"/>
	</g>
</g>
</svg>
