<?xml version="1.0" encoding="utf-8"?>
<!-- Generator: Adobe Illustrator 21.1.0, SVG Export Plug-In . SVG Version: 6.00 Build 0)  -->
<svg version="1.1" id="Camada_1" xmlns="http://www.w3.org/2000/svg" xmlns:xlink="http://www.w3.org/1999/xlink" x="0px" y="0px"
	 viewBox="0 0 465.3 109.3" style="enable-background:new 0 0 465.3 109.3;" xml:space="preserve">
<style type="text/css">
	.st0{fill:#FFFFFF;}
	.st1{fill:#1E1F1C;}
	.st2{fill:#E3051B;}
	.st3{fill:#C6050F;}
	.st4{fill:#A71820;}
	.st5{fill:#FF000D;}
	.st6{fill:#656B6D;}
	.st7{fill:#47474A;}
	.st8{fill:#2D2E2B;}
	.st9{fill:#0B0C0E;}
	.st10{fill:#1D1D1B;}
	.st11{fill:none;stroke:url(#SVGID_1_);stroke-width:1.6424;stroke-miterlimit:10;}
	.st12{fill:none;stroke:url(#SVGID_2_);stroke-width:1.6424;stroke-miterlimit:10;}
	.st13{fill:none;stroke:url(#SVGID_3_);stroke-width:1.6424;stroke-miterlimit:10;}
	.st14{fill:none;stroke:url(#SVGID_4_);stroke-width:1.6424;stroke-miterlimit:10;}
	.st15{fill:url(#SVGID_5_);}
	.st16{fill:none;stroke:url(#SVGID_6_);stroke-width:1.6424;stroke-miterlimit:10;}
	.st17{fill:none;stroke:url(#SVGID_7_);stroke-width:1.6424;stroke-miterlimit:10;}
	.st18{fill:url(#SVGID_8_);}
	.st19{fill:url(#SVGID_9_);}
	.st20{fill:none;stroke:url(#SVGID_10_);stroke-width:1.6424;stroke-miterlimit:10;}
	.st21{fill:none;stroke:url(#SVGID_11_);stroke-width:1.6424;stroke-miterlimit:10;}
	.st22{fill:none;stroke:url(#SVGID_12_);stroke-width:1.6424;stroke-miterlimit:10;}
	.st23{fill:none;stroke:url(#SVGID_13_);stroke-width:1.6424;stroke-miterlimit:10;}
	.st24{fill:url(#SVGID_14_);}
	.st25{fill:none;stroke:url(#SVGID_15_);stroke-width:1.6424;stroke-miterlimit:10;}
	.st26{fill:url(#SVGID_16_);}
	.st27{fill:url(#SVGID_17_);}
	.st28{fill:none;stroke:url(#SVGID_18_);stroke-width:1.6424;stroke-miterlimit:10;}
	.st29{fill:none;stroke:url(#SVGID_19_);stroke-width:1.6424;stroke-miterlimit:10;}
	.st30{fill:none;stroke:url(#SVGID_20_);stroke-width:1.6424;stroke-miterlimit:10;}
	.st31{fill:none;stroke:url(#SVGID_21_);stroke-width:1.6424;stroke-miterlimit:10;}
	.st32{fill:url(#SVGID_22_);}
	.st33{fill:none;stroke:url(#SVGID_23_);stroke-width:1.6424;stroke-miterlimit:10;}
	.st34{fill:none;stroke:url(#SVGID_24_);stroke-width:1.6424;stroke-miterlimit:10;}
	.st35{fill:#C6C6C6;}
	.st36{fill:url(#SVGID_25_);}
	.st37{fill:url(#SVGID_26_);}
	.st38{fill:url(#SVGID_27_);}
	.st39{fill:url(#SVGID_28_);}
	.st40{fill:url(#SVGID_29_);}
	.st41{fill:url(#SVGID_30_);}
	.st42{fill:url(#SVGID_31_);}
	.st43{fill:url(#SVGID_32_);}
	.st44{fill:#B22025;}
	.st45{fill:url(#SVGID_33_);}
	.st46{fill:url(#SVGID_34_);}
	.st47{fill:url(#SVGID_35_);}
	.st48{fill:url(#SVGID_36_);}
	.st49{fill:url(#SVGID_37_);}
	.st50{fill:url(#SVGID_38_);}
	.st51{fill:url(#SVGID_39_);}
	.st52{fill:url(#SVGID_40_);}
	.st53{fill:#575756;}
	.st54{fill:#878787;}
	.st55{fill:url(#SVGID_41_);}
	.st56{fill:url(#SVGID_42_);}
	.st57{fill:url(#SVGID_43_);}
	.st58{fill:url(#SVGID_44_);}
	.st59{fill:url(#SVGID_45_);}
	.st60{fill:url(#SVGID_46_);}
	.st61{fill:url(#SVGID_47_);}
	.st62{fill:url(#SVGID_48_);}
	.st63{fill:url(#SVGID_49_);}
	.st64{fill:url(#SVGID_50_);}
	.st65{fill:url(#SVGID_51_);}
	.st66{fill:url(#SVGID_52_);}
	.st67{fill:url(#SVGID_53_);}
	.st68{fill:url(#SVGID_54_);}
	.st69{fill:url(#SVGID_55_);}
	.st70{fill:url(#SVGID_56_);}
	.st71{fill:url(#SVGID_57_);}
	.st72{fill:url(#SVGID_58_);}
	.st73{fill:url(#SVGID_59_);}
	.st74{fill:url(#SVGID_60_);}
	.st75{fill:url(#SVGID_61_);}
	.st76{fill:url(#SVGID_62_);}
	.st77{fill:url(#SVGID_63_);}
	.st78{fill:url(#SVGID_64_);}
	.st79{fill:url(#SVGID_65_);}
	.st80{fill:url(#SVGID_66_);}
	.st81{fill:url(#SVGID_67_);}
	.st82{fill:url(#SVGID_68_);}
	.st83{fill:url(#SVGID_69_);}
	.st84{fill:url(#SVGID_70_);}
	.st85{fill:url(#SVGID_71_);}
	.st86{fill:url(#SVGID_72_);}
	.st87{fill:url(#SVGID_73_);}
	.st88{fill:url(#SVGID_74_);}
	.st89{fill:url(#SVGID_75_);}
	.st90{fill:url(#SVGID_76_);}
	.st91{fill:url(#SVGID_77_);}
	.st92{fill:url(#SVGID_78_);}
	.st93{fill:url(#SVGID_79_);}
	.st94{fill:url(#SVGID_80_);}
	.st95{fill:url(#SVGID_81_);}
	.st96{fill:url(#SVGID_82_);}
	.st97{fill:url(#SVGID_83_);}
	.st98{fill:url(#SVGID_84_);}
	.st99{fill:url(#SVGID_85_);}
	.st100{fill:#C1081A;}
	.st101{fill:url(#SVGID_86_);}
	.st102{fill:url(#SVGID_87_);}
	.st103{fill:url(#SVGID_88_);}
	.st104{fill:url(#SVGID_89_);}
	.st105{fill:#770212;}
	.st106{fill:url(#SVGID_90_);}
	.st107{fill:url(#SVGID_91_);}
	.st108{fill:url(#SVGID_92_);}
	.st109{fill:url(#SVGID_93_);}
	.st110{fill:url(#SVGID_94_);}
	.st111{fill:url(#SVGID_95_);}
	.st112{fill:url(#SVGID_96_);}
	.st113{fill:url(#SVGID_97_);}
	.st114{fill:url(#SVGID_98_);}
	.st115{fill:url(#SVGID_99_);}
	.st116{fill:#EDEDED;}
	.st117{fill:url(#SVGID_100_);}
	.st118{fill:url(#SVGID_101_);}
	.st119{fill:url(#SVGID_102_);}
	.st120{fill:url(#SVGID_103_);}
	.st121{fill:url(#SVGID_104_);}
	.st122{fill:url(#SVGID_105_);}
	.st123{fill:url(#SVGID_106_);}
	.st124{fill:url(#SVGID_107_);}
	.st125{fill:url(#SVGID_108_);}
	.st126{fill:url(#SVGID_109_);}
	.st127{fill:url(#SVGID_110_);}
	.st128{fill:url(#SVGID_111_);}
	.st129{fill:url(#SVGID_112_);}
	.st130{fill:#B2B2B2;}
	.st131{fill:url(#SVGID_113_);}
	.st132{fill:url(#SVGID_114_);}
	.st133{fill:url(#SVGID_115_);}
	.st134{fill:url(#SVGID_116_);}
	.st135{fill:#9D9D9C;}
	.st136{fill:url(#SVGID_117_);}
	.st137{fill:url(#SVGID_118_);}
	.st138{fill:url(#SVGID_119_);}
	.st139{fill:url(#SVGID_120_);}
	.st140{fill:url(#SVGID_121_);}
	.st141{fill:url(#SVGID_122_);}
	.st142{fill:url(#SVGID_123_);}
	.st143{fill:url(#SVGID_124_);}
	.st144{fill:url(#SVGID_125_);}
	.st145{fill:url(#SVGID_126_);}
	.st146{fill:url(#SVGID_127_);}
	.st147{fill:url(#SVGID_128_);}
	.st148{fill:url(#SVGID_129_);}
	.st149{fill:url(#SVGID_130_);}
	.st150{fill:url(#SVGID_131_);}
	.st151{fill:url(#SVGID_132_);}
	.st152{fill:url(#SVGID_133_);}
	.st153{fill:url(#SVGID_134_);}
	.st154{fill:url(#SVGID_135_);}
	.st155{fill:url(#SVGID_136_);}
	.st156{fill:url(#SVGID_137_);}
	.st157{fill:url(#SVGID_138_);}
	.st158{fill:url(#SVGID_139_);}
	.st159{fill:url(#SVGID_140_);}
	.st160{fill:url(#SVGID_141_);}
	.st161{fill:url(#SVGID_142_);}
	.st162{fill:#0A0A0A;}
	.st163{fill:url(#SVGID_143_);}
	.st164{fill:url(#SVGID_144_);}
	.st165{fill:url(#SVGID_145_);}
	.st166{fill:url(#SVGID_146_);}
	.st167{fill:url(#SVGID_147_);}
	.st168{fill:#323232;}
	.st169{fill:url(#SVGID_148_);}
	.st170{fill:url(#SVGID_149_);}
	.st171{fill:none;}
	.st172{fill:url(#SVGID_150_);}
	.st173{fill:url(#SVGID_151_);}
	.st174{fill:url(#SVGID_152_);}
	.st175{fill:url(#SVGID_153_);}
	.st176{fill:url(#SVGID_154_);}
	.st177{fill:url(#SVGID_155_);}
	.st178{fill:url(#SVGID_156_);}
	.st179{fill:url(#SVGID_157_);}
	.st180{fill:url(#SVGID_158_);}
	.st181{fill:url(#SVGID_159_);}
	.st182{fill:url(#SVGID_160_);}
	.st183{fill:url(#SVGID_161_);}
	.st184{fill:url(#SVGID_162_);}
	.st185{fill:url(#SVGID_163_);}
	.st186{fill:url(#SVGID_164_);}
	.st187{fill:url(#SVGID_165_);}
	.st188{fill:url(#SVGID_166_);}
	.st189{fill:url(#SVGID_167_);}
	.st190{fill:url(#SVGID_168_);}
	.st191{fill:url(#SVGID_169_);}
	.st192{fill:url(#SVGID_170_);}
	.st193{fill:url(#SVGID_171_);}
	.st194{fill:url(#SVGID_172_);}
	.st195{fill:url(#SVGID_173_);}
	.st196{fill:url(#SVGID_174_);}
	.st197{fill:url(#SVGID_175_);}
	.st198{fill:url(#SVGID_176_);}
	.st199{fill:url(#SVGID_177_);}
	.st200{fill:url(#SVGID_178_);}
	.st201{fill:url(#SVGID_179_);}
	.st202{fill:url(#SVGID_180_);}
	.st203{fill:url(#SVGID_181_);}
	.st204{fill:url(#SVGID_182_);}
	.st205{fill:url(#SVGID_183_);}
	.st206{fill:url(#SVGID_184_);}
	.st207{fill:url(#SVGID_185_);}
	.st208{fill:url(#SVGID_186_);}
	.st209{fill:url(#SVGID_187_);}
	.st210{fill:url(#SVGID_188_);}
	.st211{fill:url(#SVGID_189_);}
	.st212{fill:url(#SVGID_190_);}
	.st213{fill:url(#SVGID_191_);}
	.st214{fill:url(#SVGID_192_);}
	.st215{fill:url(#SVGID_193_);}
	.st216{fill:url(#SVGID_194_);}
	.st217{fill:url(#SVGID_195_);}
	.st218{fill:url(#SVGID_196_);}
	.st219{fill:url(#SVGID_197_);}
	.st220{fill:url(#SVGID_198_);}
	.st221{fill:url(#SVGID_199_);}
	.st222{fill:url(#SVGID_200_);}
	.st223{fill:url(#SVGID_201_);}
	.st224{fill:url(#SVGID_202_);}
	.st225{fill:url(#SVGID_203_);}
	.st226{fill:url(#SVGID_204_);}
	.st227{fill:url(#SVGID_205_);}
	.st228{fill:url(#SVGID_206_);}
	.st229{fill:url(#SVGID_207_);}
	.st230{fill:url(#SVGID_208_);}
	.st231{fill:url(#SVGID_209_);}
	.st232{fill:url(#SVGID_210_);}
	.st233{fill:url(#SVGID_211_);}
	.st234{fill:url(#SVGID_212_);}
	.st235{fill:url(#SVGID_213_);}
	.st236{fill:url(#SVGID_214_);}
	.st237{fill:url(#SVGID_215_);}
	.st238{fill:url(#SVGID_216_);}
	.st239{fill:url(#SVGID_217_);}
	.st240{fill:url(#SVGID_218_);}
	.st241{fill:url(#SVGID_219_);}
	.st242{fill:url(#SVGID_220_);}
	.st243{fill:url(#SVGID_221_);}
	.st244{fill:url(#SVGID_222_);}
	.st245{fill:url(#SVGID_223_);}
	.st246{fill:url(#SVGID_224_);}
	.st247{fill:url(#SVGID_225_);}
	.st248{fill:url(#SVGID_226_);}
	.st249{fill:url(#SVGID_227_);}
	.st250{fill:url(#SVGID_228_);}
	.st251{fill:url(#SVGID_229_);}
	.st252{fill:url(#SVGID_230_);}
	.st253{fill:url(#SVGID_231_);}
	.st254{fill:url(#SVGID_232_);}
	.st255{fill:url(#SVGID_233_);}
	.st256{fill:url(#SVGID_234_);}
	.st257{fill:url(#SVGID_235_);}
	.st258{fill:url(#SVGID_236_);}
	.st259{fill:url(#SVGID_237_);}
	.st260{fill:url(#SVGID_238_);}
	.st261{fill:url(#SVGID_239_);}
	.st262{fill:url(#SVGID_240_);}
	.st263{fill:url(#SVGID_241_);}
	.st264{fill:url(#SVGID_242_);}
	.st265{fill:url(#SVGID_243_);}
	.st266{fill:url(#SVGID_244_);}
	.st267{fill:url(#SVGID_245_);}
	.st268{fill:url(#SVGID_246_);}
	.st269{fill:url(#SVGID_247_);}
	.st270{fill:url(#SVGID_248_);}
	.st271{fill:url(#SVGID_249_);}
	.st272{fill:url(#SVGID_250_);}
	.st273{fill:url(#SVGID_251_);}
	.st274{fill:url(#SVGID_252_);}
	.st275{fill:url(#SVGID_253_);}
	.st276{fill:url(#SVGID_254_);}
	.st277{fill:url(#SVGID_255_);}
	.st278{fill:url(#SVGID_256_);}
	.st279{fill:url(#SVGID_257_);}
	.st280{fill:url(#SVGID_258_);}
	.st281{fill:url(#SVGID_259_);}
	.st282{fill:url(#SVGID_260_);}
	.st283{fill:url(#SVGID_261_);}
	.st284{fill:url(#SVGID_262_);}
	.st285{fill:url(#SVGID_263_);}
	.st286{fill:url(#SVGID_264_);}
	.st287{fill:url(#SVGID_265_);}
	.st288{fill:url(#SVGID_266_);}
	.st289{fill:url(#SVGID_267_);}
	.st290{fill:url(#SVGID_268_);}
	.st291{fill:url(#SVGID_269_);}
	.st292{fill:url(#SVGID_270_);}
	.st293{fill:url(#SVGID_271_);}
	.st294{fill:url(#SVGID_272_);}
	.st295{fill:url(#SVGID_273_);}
	.st296{fill:url(#SVGID_274_);}
	.st297{fill:url(#SVGID_275_);}
	.st298{fill:url(#SVGID_276_);}
	.st299{fill:url(#SVGID_277_);}
	.st300{fill:url(#SVGID_278_);}
	.st301{fill:url(#SVGID_279_);}
	.st302{fill:url(#SVGID_280_);}
	.st303{fill:url(#SVGID_281_);}
	.st304{fill:url(#SVGID_282_);}
	.st305{fill:url(#SVGID_283_);}
	.st306{fill:url(#SVGID_284_);}
	.st307{fill:url(#SVGID_285_);}
	.st308{fill:url(#SVGID_286_);}
	.st309{fill:url(#SVGID_287_);}
	.st310{fill:url(#SVGID_288_);}
	.st311{fill:url(#SVGID_289_);}
	.st312{fill:url(#SVGID_290_);}
	.st313{fill:url(#SVGID_291_);}
	.st314{fill:url(#SVGID_292_);}
	.st315{fill:url(#SVGID_293_);}
	.st316{fill:url(#SVGID_294_);}
	.st317{fill:url(#SVGID_295_);}
	.st318{fill:url(#SVGID_296_);}
	.st319{fill:url(#SVGID_297_);}
	.st320{fill:url(#SVGID_298_);}
	.st321{fill:url(#SVGID_299_);}
	.st322{fill:url(#SVGID_300_);}
	.st323{fill:url(#SVGID_301_);}
	.st324{fill:url(#SVGID_302_);}
	.st325{fill:url(#SVGID_303_);}
	.st326{fill:url(#SVGID_304_);}
	.st327{fill:url(#SVGID_305_);}
	.st328{fill:url(#SVGID_306_);}
	.st329{fill:url(#SVGID_307_);}
	.st330{fill:url(#SVGID_308_);}
	.st331{fill:url(#SVGID_309_);}
	.st332{fill:url(#SVGID_310_);}
	.st333{fill:url(#SVGID_311_);}
	.st334{fill:url(#SVGID_312_);}
	.st335{fill:url(#SVGID_313_);}
	.st336{fill:url(#SVGID_314_);}
	.st337{fill:url(#SVGID_315_);}
	.st338{fill:url(#SVGID_316_);}
	.st339{fill:url(#SVGID_317_);}
	.st340{fill:url(#SVGID_318_);}
	.st341{fill:url(#SVGID_319_);}
	.st342{fill:url(#SVGID_320_);}
	.st343{fill:url(#SVGID_321_);}
	.st344{fill:url(#SVGID_322_);}
	.st345{fill:url(#SVGID_323_);}
	.st346{fill:url(#SVGID_324_);}
	.st347{fill:url(#SVGID_325_);}
	.st348{fill:url(#SVGID_326_);}
	.st349{fill:url(#SVGID_327_);}
	.st350{fill:url(#SVGID_328_);}
	.st351{fill:url(#SVGID_329_);}
	.st352{fill:url(#SVGID_330_);}
	.st353{fill:url(#SVGID_331_);}
	.st354{fill:url(#SVGID_332_);}
	.st355{fill:url(#SVGID_333_);}
	.st356{fill:url(#SVGID_334_);}
	.st357{fill:url(#SVGID_335_);}
	.st358{fill:url(#SVGID_336_);}
	.st359{fill:url(#SVGID_337_);}
	.st360{fill:url(#SVGID_338_);}
	.st361{fill:url(#SVGID_339_);}
	.st362{fill:url(#SVGID_340_);}
	.st363{fill:url(#SVGID_341_);}
	.st364{fill:url(#SVGID_342_);}
	.st365{fill:url(#SVGID_343_);}
	.st366{fill:url(#SVGID_344_);}
	.st367{fill:url(#SVGID_345_);}
	.st368{fill:url(#SVGID_346_);}
	.st369{fill:url(#SVGID_347_);}
	.st370{fill:url(#SVGID_348_);}
	.st371{fill:url(#SVGID_349_);}
	.st372{fill:url(#SVGID_350_);}
	.st373{fill:url(#SVGID_351_);}
	.st374{fill:url(#SVGID_352_);}
	.st375{fill:url(#SVGID_353_);}
	.st376{fill:url(#SVGID_354_);}
	.st377{fill:url(#SVGID_355_);}
	.st378{fill:url(#SVGID_356_);}
	.st379{fill:url(#SVGID_357_);}
	.st380{fill:url(#SVGID_358_);}
	.st381{fill:url(#SVGID_359_);}
	.st382{fill:url(#SVGID_360_);}
	.st383{fill:url(#SVGID_361_);}
	.st384{fill:url(#SVGID_362_);}
	.st385{fill:url(#SVGID_363_);}
	.st386{fill:url(#SVGID_364_);}
	.st387{fill:url(#SVGID_365_);}
	.st388{fill:url(#SVGID_366_);}
	.st389{fill:url(#SVGID_367_);}
	.st390{fill:url(#SVGID_368_);}
	.st391{fill:url(#SVGID_369_);}
	.st392{fill:url(#SVGID_370_);}
	.st393{fill:url(#SVGID_371_);}
	.st394{fill:url(#SVGID_372_);}
	.st395{fill:url(#SVGID_373_);}
	.st396{fill:url(#SVGID_374_);}
	.st397{fill:url(#SVGID_375_);}
	.st398{fill:url(#SVGID_376_);}
	.st399{fill:url(#SVGID_377_);}
	.st400{fill:url(#SVGID_378_);}
	.st401{fill:url(#SVGID_379_);}
	.st402{fill:url(#SVGID_380_);}
	.st403{fill:url(#SVGID_381_);}
	.st404{fill:url(#SVGID_382_);}
	.st405{fill:url(#SVGID_383_);}
	.st406{fill:url(#SVGID_384_);}
	.st407{fill:url(#SVGID_385_);}
	.st408{fill:none;stroke:url(#SVGID_386_);stroke-width:1.6424;stroke-miterlimit:10;}
	.st409{fill:url(#);}
	.st410{fill:url(#SVGID_387_);}
	.st411{fill:none;stroke:url(#SVGID_388_);stroke-width:0.7506;stroke-miterlimit:10;}
	.st412{fill:none;stroke:url(#SVGID_389_);stroke-width:0.7506;stroke-miterlimit:10;}
	.st413{fill:none;stroke:url(#SVGID_390_);stroke-width:0.7506;stroke-miterlimit:10;}
	.st414{fill:none;stroke:url(#SVGID_391_);stroke-width:0.7506;stroke-miterlimit:10;}
	.st415{fill:url(#SVGID_392_);}
	.st416{fill:none;stroke:url(#SVGID_393_);stroke-width:0.7506;stroke-miterlimit:10;}
	.st417{fill:url(#SVGID_394_);}
	.st418{fill:url(#SVGID_395_);}
	.st419{fill:none;stroke:url(#SVGID_396_);stroke-width:0.7506;stroke-miterlimit:10;}
	.st420{fill:none;stroke:url(#SVGID_397_);stroke-width:0.7506;stroke-miterlimit:10;}
	.st421{fill:none;stroke:url(#SVGID_398_);stroke-width:0.7506;stroke-miterlimit:10;}
	.st422{fill:none;stroke:url(#SVGID_399_);stroke-width:0.7506;stroke-miterlimit:10;}
	.st423{fill:url(#SVGID_400_);}
	.st424{fill:none;stroke:url(#SVGID_401_);stroke-width:0.7506;stroke-miterlimit:10;}
	.st425{fill:none;stroke:url(#SVGID_402_);stroke-width:0.7506;stroke-miterlimit:10;}
</style>
<g>
	<g>
		<path class="st0" d="M195.2,45.4c0.1-1-0.2-1.6-0.6-2c-0.3-0.4-0.9-0.8-1.9-0.8h-10.1c-1.5,0-2.5,0.8-2.8,2.2l-5.3,29.9
			c-1.4,0.7-3,1.1-4.9,1.1c-1.4,0-2.5-0.3-3.3-1c-0.7-0.6-1.1-1.6-1.1-3c0-0.7,0.1-1.4,0.2-2.1l4.4-24.3c0.2-0.8,0-1.5-0.5-2.1
			c-0.3-0.4-0.9-0.8-2-0.8h-10.1c-1.5,0-2.5,0.8-2.7,2.2l-4.3,23.3c-0.2,1.5-0.4,3-0.4,4.7c0,5,1.4,9,4.3,12c2.9,3,6.9,4.5,11.8,4.5
			c1.9,0,3.9-0.3,6-0.8c-0.5,1.9-1.2,3.3-2.2,4.2c-1.3,1.2-3.2,1.7-5.7,1.7c-3.4,0-6.3-0.9-8.8-2.6c-0.5-0.4-1.1-0.6-1.7-0.6
			c-0.8,0-1.6,0.4-2,1.2l-5.4,6.9c-0.4,0.5-0.6,1.1-0.6,1.7c0,0.8,0.3,1.5,1,1.9c2.1,1.8,4.5,3.1,7.1,4c2.7,0.9,5.8,1.3,9.4,1.3
			c5,0,9.2-0.8,12.5-2.4c3.3-1.6,6-4.1,8.1-7.5c2-3.3,3.5-7.7,4.4-13.2L195.2,45.4L195.2,45.4z"/>
		<path class="st0" d="M222.5,45.5c0.2-1-0.1-1.7-0.5-2.1c-0.3-0.4-1-0.9-2.1-0.9h-6l0.5-9.5c0.1-1-0.3-1.5-0.6-1.9
			c-0.3-0.4-1-0.7-2-0.7H203c-1.5,0-2.5,0.7-2.8,2.2L193.5,71c-0.3,1.6-0.5,3.3-0.5,5.3c0,4.9,1,7.9,3.7,10.5
			c2.3,2.2,6.4,1.9,11.1,1.9h4.7c1.8,0,3.3-1.1,3.6-2.8l1-5.7c0.2-0.8,0.1-1.6-0.3-2.2c-0.4-0.5-1.1-0.9-1.9-0.9h-2.7
			c-1.3,0-2.2-0.2-2.7-0.7c-0.5-0.5-0.7-1.2-0.7-2.3c0-0.3,0-0.7,0.2-1.6l2.9-16.3h6.4c1.5,0,2.5-0.9,2.8-2.4L222.5,45.5z"/>
		<path class="st0" d="M254.8,46.3c-3.1-2.4-7.2-3.6-12.2-3.6c-5.3,0-10,1.4-13.8,4.2c-3.9,2.8-5.3,5.7-6.2,11l-2.3,12.9
			c-0.2,1.6-0.3,2.6-0.3,3.3c0,4.6,0.7,8.2,4,10.9c3.2,2.6,7.4,4,12.5,4c6.6,0,12.5-1.7,17.4-5.1c0.7-0.4,1.1-1.1,1.1-2
			c0-0.2,0-0.4-0.2-1.1l0-0.1l-3.4-6.3c-0.5-1.1-1.4-1.3-1.9-1.3c-0.5,0-1,0.2-1.5,0.5c-3.4,2-6.8,3.1-10,3.1
			c-1.8,0-3.1-0.4-3.9-1.1c-0.6-0.6-0.8-1.4-0.8-2.5c0-0.2,0-0.7,0.2-1.8l0.1-0.4h21.7c1.3,0,2.2-0.6,2.5-1.9l1.4-7.8
			c0.3-1.7,0.4-3,0.4-4.1C259.6,52.3,258,48.7,254.8,46.3z M245.5,60l-0.2,1.4h-9.8l0.2-1.1c0.3-1.7,1-3,2.1-3.9
			c1-0.9,2.3-1.3,3.8-1.3c1.4,0,2.4,0.3,3.1,1c0.7,0.7,1,1.5,1,2.7C245.6,58.8,245.6,59.3,245.5,60z"/>
		<g>
			<path class="st0" d="M114.8,76.2l1.7-11.3c0.3-1.9-1.2-3.6-3.1-3.6l-10.9,0c-1.5,0-2.9,1.1-3.1,2.7l-1.7,11.3
				c-0.3,1.9,1.2,3.6,3.1,3.6h10.9l0,0C113.2,78.9,114.6,77.8,114.8,76.2z"/>
			<path class="st0" d="M150.3,49c-0.3-5.2-2.3-8.4-7.5-10.2c-0.7-0.2-1.4-0.4-2.1-0.4c-4.2,0-20.1,0-20.4,0l1.4-9.7l0.7-4.4
				l2.1-13.5l0.8-5.4c0.4-2.4-1.5-4.5-3.9-4.5h-2.9h-3.5c-3.8,0-6.6,3.2-7.7,11.2l0,0l-8.4,55.7c-0.4,3,4.9,6.9,8.3,9.1
				c1.4,0.9,2.4,1.5,2.4,1.5c0.1,0.1,0.3,0.2,0.5,0.2c0.7,0.3,1.6,0.4,2.3,0.3c1-0.2,2.2-0.9,2.5-2.6c0,0,2.6-18,2.8-19.7
				c0.1-0.7,0.5-1.4,1.1-1.9c0.8-0.7,1.4-1,2.5-1l1.6,0l5.6,0c0,0,0,0,0.1,0l0.2,0c0.3,0,0.8,0,1.2,0.1c2.8,0.8,3.7,2.4,3.7,5.1
				c0,1.3-1.6,9.3-1.8,10.6c-0.6,3.6-3.5,5.2-6,5.3l-2.5,0c-0.3,0-0.5,0-0.8,0c-5-0.2-5.6,3.9-5.7,5c-0.2,1.7-0.3,3.1-0.3,3.7
				c0,0.1,0,0.3,0,0.4c0.2,2.7,2.6,4.8,5.4,4.8l10.3,0c6-0.2,12.5-4.9,14-13.4c0.5-3.1,4.2-21.7,4.2-24.9
				C150.3,50,150.3,49.5,150.3,49z"/>
		</g>
	</g>
	<g>
		<g>
			<path class="st0" d="M319.8,76.2l1.7-11.3c0.3-1.9-1.2-3.6-3.1-3.6l-10.9,0c-1.5,0-2.9,1.1-3.1,2.7l-1.7,11.3
				c-0.3,1.9,1.2,3.6,3.1,3.6h10.9l0,0C318.2,78.9,319.5,77.8,319.8,76.2z"/>
			<path class="st0" d="M355.2,49c-0.3-5.2-2.3-8.4-7.5-10.2c-0.7-0.2-1.4-0.4-2.1-0.4c-4.2,0-20.1,0-20.4,0l1.4-9.7l0.7-4.4
				l2.1-13.5l0.8-5.4c0.4-2.4-1.5-4.5-3.9-4.5h-2.9h-3.5c-3.8,0-6.6,3.2-7.7,11.2l0,0l-8.4,55.7c-0.4,3,4.9,6.9,8.3,9.1
				c1.4,0.9,2.4,1.5,2.4,1.5c0.1,0.1,0.3,0.2,0.5,0.2c0.7,0.3,1.6,0.4,2.3,0.3c1-0.2,2.2-0.9,2.5-2.6c0,0,2.6-18,2.8-19.7
				c0.1-0.7,0.5-1.4,1.1-1.9c0.8-0.7,1.4-1,2.5-1l1.6,0l5.6,0c0,0,0,0,0.1,0l0.2,0c0.3,0,0.8,0,1.2,0.1c2.8,0.8,3.7,2.4,3.7,5.1
				c0,1.3-1.6,9.3-1.8,10.6c-0.6,3.6-3.5,5.2-6,5.3l-2.5,0c-0.3,0-0.5,0-0.8,0c-5-0.2-5.6,3.9-5.7,5c-0.2,1.7-0.3,3.1-0.3,3.7
				c0,0.1,0,0.3,0,0.4c0.2,2.7,2.6,4.8,5.4,4.8l10.3,0c6-0.2,12.5-4.9,14-13.4c0.5-3.1,4.2-21.7,4.2-24.9
				C355.3,50,355.2,49.5,355.2,49z"/>
		</g>
		<path class="st0" d="M400,45.4c0.1-1-0.2-1.6-0.6-2c-0.3-0.4-0.9-0.8-1.9-0.8h-10.1c-1.5,0-2.5,0.8-2.8,2.2l-5.3,29.9
			c-1.4,0.7-3,1.1-4.9,1.1c-1.4,0-2.5-0.3-3.3-1c-0.7-0.6-1.1-1.6-1.1-3c0-0.7,0.1-1.4,0.2-2.1l4.4-24.3c0.2-0.8,0-1.5-0.5-2.1
			c-0.3-0.4-0.9-0.8-2-0.8h-10.1c-1.5,0-2.5,0.8-2.7,2.2l-4.3,23.3c-0.2,1.5-0.4,3-0.4,4.7c0,5,1.4,9,4.3,12c2.9,3,6.9,4.5,11.8,4.5
			c1.9,0,3.9-0.3,6-0.8c-0.5,1.9-1.2,3.3-2.2,4.2c-1.3,1.2-3.2,1.7-5.7,1.7c-3.4,0-6.3-0.9-8.8-2.6c-0.5-0.4-1.1-0.6-1.7-0.6
			c-0.8,0-1.6,0.4-2,1.2l-5.4,6.9c-0.4,0.5-0.6,1.1-0.6,1.7c0,0.8,0.3,1.5,1,1.9c2.1,1.8,4.5,3.1,7.1,4c2.7,0.9,5.8,1.3,9.4,1.3
			c5,0,9.2-0.8,12.5-2.4c3.3-1.6,6-4.1,8.1-7.5c2-3.3,3.5-7.7,4.4-13.2L400,45.4L400,45.4z"/>
		<path class="st0" d="M427.4,45.5c0.2-1-0.1-1.7-0.5-2.1c-0.3-0.4-1-0.9-2.1-0.9h-6l0.5-9.5c0.1-1-0.3-1.5-0.6-1.9
			c-0.3-0.4-1-0.7-2-0.7h-8.8c-1.5,0-2.5,0.7-2.8,2.2L398.3,71c-0.3,1.6-0.5,3.3-0.5,5.3c0,4.9,1,7.9,3.7,10.5
			c2.3,2.2,6.4,1.9,11.1,1.9h4.7c1.8,0,3.3-1.1,3.6-2.8l1-5.7c0.2-0.8,0.1-1.6-0.3-2.2c-0.4-0.5-1.1-0.9-1.9-0.9h-2.7
			c-1.3,0-2.2-0.2-2.7-0.7c-0.5-0.5-0.7-1.2-0.7-2.3c0-0.3,0-0.7,0.2-1.6l2.9-16.3h6.4c1.5,0,2.5-0.9,2.8-2.4L427.4,45.5z"/>
		<path class="st0" d="M459.7,46.2c-3.1-2.4-7.2-3.6-12.2-3.6c-5.3,0-10,1.4-13.8,4.2c-3.9,2.8-5.3,5.7-6.2,11l-2.3,12.9
			c-0.2,1.6-0.3,2.6-0.3,3.3c0,4.6,0.7,8.2,4,10.9c3.2,2.6,7.4,4,12.5,4c6.6,0,12.5-1.7,17.4-5.1c0.7-0.4,1.1-1.1,1.1-2
			c0-0.2,0-0.4-0.2-1.1l0-0.1l-3.4-6.3c-0.5-1.1-1.4-1.3-1.9-1.3c-0.5,0-1,0.2-1.5,0.5c-3.4,2-6.8,3.1-10,3.1
			c-1.8,0-3.1-0.4-3.9-1.1c-0.6-0.6-0.8-1.4-0.8-2.5c0-0.2,0-0.7,0.2-1.8l0.1-0.4h21.7c1.3,0,2.2-0.6,2.5-1.9l1.4-7.8
			c0.3-1.7,0.4-3,0.4-4.1C464.4,52.3,462.8,48.7,459.7,46.2z M450.4,60l-0.2,1.4h-9.8l0.2-1.1c0.3-1.7,1-3,2.1-3.9
			c1-0.9,2.3-1.3,3.8-1.3c1.4,0,2.4,0.3,3.1,1c0.7,0.7,1,1.5,1,2.7C450.5,58.7,450.5,59.2,450.4,60z"/>
	</g>
	<path class="st0" d="M271.2,74.7c-1.6-3-2.6-6-2.9-9.1c-0.1-1.4-0.1-3,0.1-4.6c0.6-4.3,2.7-8.6,6.4-12.8c0.2-0.2-0.1-0.3-0.1-0.3
		h-2.6c-0.4,0-0.6,0.1-0.8,0.3c-3.7,4.2-5.8,8.5-6.4,12.8c-0.2,1.6-0.3,3.1-0.1,4.6c0.3,3,1.2,6.1,2.9,9.1c0.1,0.3,0.4,0.4,0.8,0.4
		h2.8C271.4,75.1,271.3,75,271.2,74.7z"/>
	<path class="st0" d="M293,48.4c1.6,3,2.6,6,2.9,9.1c0.1,1.4,0.1,3-0.1,4.6c-0.6,4.3-2.7,8.6-6.4,12.8c-0.2,0.2,0.1,0.3,0.1,0.3h2.6
		c0.4,0,0.6-0.1,0.8-0.3c3.7-4.2,5.8-8.5,6.4-12.8c0.2-1.6,0.3-3.1,0.1-4.6c-0.3-3-1.2-6.1-2.9-9.1c-0.1-0.3-0.4-0.4-0.8-0.4H293
		C292.8,48,292.9,48.1,293,48.4z"/>
	<path class="st0" d="M290,51.2c-1.5-1.5-3.7-2.2-6.4-2.2c-1.8,0-3.5,0.2-5.1,0.6c-1.6,0.4-3,0.9-4,1.5c-0.2,0.1-0.6,0.3-0.6,1
		c0,0.1,0,0.2,0.1,0.7l1.4,3.6c0.3,0.7,0.9,0.8,1.1,0.8c0.2,0,0.4-0.1,0.7-0.2c0.6-0.3,1.4-0.5,2.2-0.7c0.9-0.2,1.8-0.3,2.7-0.3
		c1.2,0,1.7,0.2,2,0.4c0.3,0.3,0.5,0.7,0.5,1.2c0,0.4,0,0.7-0.1,1l0,0.1c-1-0.2-2.1-0.2-3.2-0.2c-6.2,0-9.7,2.2-10.5,6.6
		c-0.1,0.6-0.1,1.1-0.1,1.6c0,2.2,0.8,4,2.5,5.4c1.6,1.3,3.8,2,6.6,2c3.2,0,6.3-0.5,9.2-1.6c0.4-0.1,0.9-0.5,1.1-1.3l2-11
		c0.2-1,0.3-1.9,0.3-2.7C292.3,54.8,291.5,52.7,290,51.2z M283.1,67.1c-0.9,0.2-1.7,0.2-2.5,0.2c-2.1,0-2.1-0.9-2.1-1.3
		c0-0.9,0.3-1.9,2.9-1.9c0.7,0,1.4,0.1,2.1,0.2L283.1,67.1z"/>
	<g>
		<path class="st0" d="M15.4,51.7l-2.6,17c-0.8,4.9,3,9.3,8,9.4l16.1,0.1c4,0,7.5-2.9,8.1-6.9l2.6-17.1c0.7-4.9-3.1-9.3-8-9.3
			l-16.1,0C19.4,44.8,16,47.7,15.4,51.7z"/>
		<path class="st0" d="M14.2,39.7l1.3-8.8c0.2-1.5-0.9-2.8-2.4-2.8l-8.5,0c-1.2,0-2.2,0.9-2.4,2.1L0.8,39c-0.2,1.5,0.9,2.8,2.4,2.8
			h8.5h0C13,41.8,14,40.9,14.2,39.7z"/>
		<path class="st0" d="M59,86.6l1.3-8.8c0.2-1.5-0.9-2.8-2.4-2.8l-8.5,0c-1.2,0-2.2,0.9-2.4,2.1l-1.3,8.8c-0.2,1.5,0.9,2.8,2.4,2.8
			h8.5l0,0C57.8,88.6,58.8,87.8,59,86.6z"/>
		<path class="st0" d="M67.4,0.8l-37.4,0c-4,0-7.5,3-8,7L21,15.1l-3.3,21.9c-0.4,2.5,1.5,4.7,4,4.7h21.2c5,0,8.8,4.4,8,9.3
			l-2.4,16.2c-0.4,2.4,1.5,4.7,4,4.7L77.9,72c4,0,7.5-2.9,8.1-6.9l1.1-7.7l1.3-8.3c0.5-2.9,1.8-11.2,3.1-20.2
			C93.8,14.2,82.4,0.9,67.4,0.8z"/>
	</g>
</g>
</svg>
