<?xml version="1.0" encoding="UTF-8"?>
<!DOCTYPE svg PUBLIC "-//W3C//DTD SVG 1.1//EN" "http://www.w3.org/Graphics/SVG/1.1/DTD/svg11.dtd">
<!-- Creator: CorelDRAW X8 -->
<svg xmlns="http://www.w3.org/2000/svg" xml:space="preserve" width="210mm" height="147.789mm" version="1.1" style="shape-rendering:geometricPrecision; text-rendering:geometricPrecision; image-rendering:optimizeQuality; fill-rule:evenodd; clip-rule:evenodd"
viewBox="0 0 21000 14779"
 xmlns:xlink="http://www.w3.org/1999/xlink">
 <defs>
  <style type="text/css">
   <![CDATA[
    .fil0 {fill:#BB0000}
    .fil1 {fill:white}
   ]]>
  </style>
 </defs>
 <g id="Camada_x0020_1">
  <metadata id="CorelCorpID_0Corel-Layer"/>
  <path id="XMLID_823_" class="fil0" d="M20181 1269c-758,-901 -2157,-1269 -4830,-1269l-9702 0c-2734,0 -4158,391 -4913,1351 -736,935 -736,2313 -736,4221l0 3635c0,3696 874,5572 5649,5572l9702 0c2318,0 3602,-324 4433,-1120 852,-815 1216,-2147 1216,-4452l0 -3635c0,-2012 -57,-3398 -819,-4303zm-6699 6622l-4406 2303c-98,52 -206,77 -314,77 -121,0 -243,-33 -350,-98 -203,-123 -327,-342 -327,-579l0 -4591c0,-236 124,-456 326,-579 202,-123 454,-131 664,-22l4406 2288c224,116 364,348 365,600 0,253 -140,485 -364,601z"/>
  <g id="_94539536">
  </g>
  <g id="_595588656">
  </g>
  <g id="_870376432">
  </g>
  <g id="_810408768">
  </g>
  <g id="_874710000">
  </g>
  <g id="_870427568">
  </g>
  <g id="_870427856">
  </g>
  <g id="_870428144">
  </g>
  <g id="_870428432">
  </g>
  <g id="_870428720">
  </g>
  <g id="_870429008">
  </g>
  <g id="_874456688">
  </g>
  <g id="_874456976">
  </g>
  <g id="_874457264">
  </g>
  <g id="_874457552">
  </g>
  <path id="XMLID_823__0" class="fil1" d="M13482 7891l-4406 2303c-98,52 -206,77 -314,77 -121,0 -243,-33 -350,-98 -203,-123 -327,-342 -327,-579l0 -4591c0,-236 124,-456 326,-579 202,-123 454,-131 664,-22l4406 2288c224,116 364,348 365,600 0,253 -140,485 -364,601z"/>
 </g>
</svg>
