<?xml version="1.0" encoding="utf-8"?>
<!-- Generator: Adobe Illustrator 23.0.3, SVG Export Plug-In . SVG Version: 6.00 Build 0)  -->
<svg version="1.1" id="Camada_1" xmlns="http://www.w3.org/2000/svg" xmlns:xlink="http://www.w3.org/1999/xlink" x="0px" y="0px"
	 viewBox="0 0 500 500" style="enable-background:new 0 0 500 500;" xml:space="preserve">
<g>
	<path fill="#00ACED" d="M250,21.4c126.2,0,228.6,102.3,228.6,228.6S376.2,478.6,250,478.6S21.4,376.2,21.4,250S123.8,21.4,250,21.4
		 M250,1.4c-33.5,0-66.1,6.6-96.8,19.5c-29.6,12.5-56.2,30.4-79,53.3s-40.7,49.4-53.3,79C8,183.9,1.4,216.5,1.4,250
		S8,316.1,21,346.8c12.5,29.6,30.4,56.2,53.3,79c22.8,22.8,49.4,40.7,79,53.3c30.7,13,63.2,19.5,96.8,19.5s66.1-6.6,96.8-19.5
		c29.6-12.5,56.2-30.4,79-53.3c22.8-22.8,40.7-49.4,53.3-79c13-30.7,19.5-63.2,19.5-96.8s-6.6-66.1-19.5-96.8
		c-12.5-29.6-30.4-56.2-53.3-79c-22.8-22.8-49.4-40.7-79-53.3C316.1,8,283.5,1.4,250,1.4L250,1.4z"/>
</g>
<g>
	<g>
		<path fill="#00ACED" d="M403.9,154.6c-11.3,5-23.5,8.4-36.3,9.9c13-7.8,23-20.2,27.8-34.9c-12.2,7.2-25.7,12.5-40.1,15.3
			c-11.5-12.3-27.9-19.9-46.1-19.9c-34.9,0-63.1,28.3-63.1,63.1c0,4.9,0.6,9.8,1.6,14.4c-52.5-2.6-99-27.8-130.1-66
			c-5.4,9.3-8.5,20.2-8.5,31.7c0,21.9,11.2,41.2,28.1,52.5c-10.3-0.3-20.1-3.2-28.6-7.9v0.8c0,30.6,21.8,56.1,50.6,61.9
			c-5.3,1.4-10.9,2.2-16.6,2.2c-4.1,0-8-0.4-11.9-1.2c8,25.1,31.3,43.3,59,43.8c-21.6,16.9-48.8,27-78.4,27
			c-5.1,0-10.1-0.3-15.1-0.9c27.9,17.9,61.1,28.4,96.8,28.4c116.1,0,179.6-96.2,179.6-179.6l-0.2-8.2
			C384.7,178.3,395.4,167.2,403.9,154.6z"/>
	</g>
</g>
</svg>
