<?xml version="1.0" encoding="utf-8"?>
<!-- Generator: Adobe Illustrator 23.0.3, SVG Export Plug-In . SVG Version: 6.00 Build 0)  -->
<svg version="1.1" id="Camada_1" xmlns="http://www.w3.org/2000/svg" xmlns:xlink="http://www.w3.org/1999/xlink" x="0px" y="0px"
	 viewBox="0 0 500 500" style="enable-background:new 0 0 500 500;" xml:space="preserve">
<g>
	<path fill="#34AF23" d="M250,21.4c126.2,0,228.6,102.3,228.6,228.6S376.2,478.6,250,478.6S21.4,376.2,21.4,250S123.8,21.4,250,21.4
		 M250,1.4c-33.5,0-66.1,6.6-96.8,19.5c-29.6,12.5-56.2,30.4-79,53.3s-40.7,49.4-53.3,79C8,183.9,1.4,216.5,1.4,250
		S8,316.1,21,346.8c12.5,29.6,30.4,56.2,53.3,79c22.8,22.8,49.4,40.7,79,53.3c30.7,13,63.2,19.5,96.8,19.5s66.1-6.6,96.8-19.5
		c29.6-12.5,56.2-30.4,79-53.3c22.8-22.8,40.7-49.4,53.3-79c13-30.7,19.5-63.2,19.5-96.8s-6.6-66.1-19.5-96.8
		c-12.5-29.6-30.4-56.2-53.3-79c-22.8-22.8-49.4-40.7-79-53.3C316.1,8,283.5,1.4,250,1.4L250,1.4z"/>
</g>
<g>
	<path id="WhatsApp" fill="#34AF23" d="M375,246.8c0,67.3-54.9,121.8-122.7,121.8c-21.5,0-41.7-5.5-59.3-15.2L125,375l22.2-65.3
		c-11.2-18.4-17.6-39.9-17.6-62.9c0-67.3,54.9-121.8,122.7-121.8C320.1,125,375,179.5,375,246.8z M252.3,144.4
		c-56.9,0-103.2,45.9-103.2,102.4c0,22.4,7.3,43.1,19.7,60l-12.9,38l39.7-12.6c16.3,10.7,35.8,16.9,56.8,16.9
		c56.9,0,103.2-45.9,103.2-102.4S309.2,144.4,252.3,144.4z M314.2,274.8c-0.8-1.2-2.8-2-5.8-3.5c-3-1.5-17.8-8.7-20.6-9.7
		c-2.8-1-4.8-1.5-6.8,1.5c-2,3-7.8,9.7-9.5,11.7c-1.8,2-3.5,2.2-6.5,0.8c-3-1.5-12.7-4.6-24.2-14.8c-8.9-7.9-15-17.7-16.7-20.7
		c-1.8-3-0.2-4.6,1.3-6.1c1.4-1.3,3-3.5,4.5-5.2c1.5-1.7,2-3,3-5c1-2,0.5-3.7-0.3-5.2c-0.8-1.5-6.8-16.2-9.3-22.2c-2.5-6-5-5-6.8-5
		c-1.8,0-3.8-0.3-5.8-0.3c-2,0-5.3,0.7-8,3.7c-2.8,3-10.5,10.2-10.5,24.9c0,14.7,10.8,28.9,12.3,30.9c1.5,2,20.8,33.1,51.4,45.1
		c30.6,11.9,30.6,8,36.1,7.5c5.5-0.5,17.8-7.2,20.3-14.2C315,282,315,276.1,314.2,274.8z"/>
</g>
</svg>
