<?xml version="1.0" encoding="utf-8"?>
<!-- Generator: Adobe Illustrator 23.0.3, SVG Export Plug-In . SVG Version: 6.00 Build 0)  -->
<svg version="1.1" id="Camada_1" xmlns="http://www.w3.org/2000/svg" xmlns:xlink="http://www.w3.org/1999/xlink" x="0px" y="0px"
	 viewBox="0 0 200 200" style="enable-background:new 0 0 200 200;" xml:space="preserve">
<g>
	<path fill="#ffba00" d="M101.1,50.5c-26.7,0-48.4,21.5-48.4,48c0,10.5,3.4,20.2,9.2,28.2l-6,17.8l18.6-5.9c7.6,5,16.8,7.9,26.6,7.9
		c26.7,0,48.4-21.5,48.4-48C149.5,72,127.8,50.5,101.1,50.5z M129.3,118.3c-1.2,3.3-6.9,6.4-9.5,6.7c-2.6,0.2-2.6,2.1-16.9-3.5
		c-14.3-5.6-23.4-20.2-24.1-21.1C78,99.4,73,92.8,73,85.9c0-6.9,3.6-10.3,4.9-11.7c1.3-1.4,2.8-1.7,3.8-1.7s1.9,0.1,2.7,0.1
		c0.8,0,2-0.5,3.2,2.3c1.2,2.8,4,9.7,4.4,10.4c0.3,0.7,0.6,1.5,0.1,2.5c-0.5,0.9-0.7,1.5-1.4,2.3c-0.7,0.8-1.5,1.8-2.1,2.5
		c-0.7,0.7-1.4,1.5-0.6,2.9c0.8,1.4,3.7,6,7.8,9.7c5.4,4.8,9.9,6.2,11.4,6.9c1.4,0.7,2.2,0.6,3.1-0.4c0.8-0.9,3.5-4.1,4.5-5.5
		c0.9-1.4,1.9-1.2,3.2-0.7c1.3,0.5,8.2,3.8,9.6,4.5c1.4,0.7,2.3,1.1,2.7,1.6C130.5,112.2,130.5,115,129.3,118.3z"/>
	<path fill="#ffba00" d="M0,0v200h200V0H0z M101.1,155.6c-10.1,0-19.6-2.6-27.8-7.1l-31.9,10.1L51.8,128c-5.2-8.6-8.3-18.7-8.3-29.5
		c0-31.5,25.8-57.1,57.6-57.1c31.8,0,57.6,25.6,57.6,57.1S132.9,155.6,101.1,155.6z"/>
</g>
</svg>
