<?xml version="1.0" encoding="utf-8"?>
<!-- Generator: Adobe Illustrator 23.0.3, SVG Export Plug-In . SVG Version: 6.00 Build 0)  -->
<svg version="1.1" id="Camada_1" xmlns="http://www.w3.org/2000/svg" xmlns:xlink="http://www.w3.org/1999/xlink" x="0px" y="0px"
	 viewBox="0 0 500 500" style="enable-background:new 0 0 500 500;" xml:space="preserve">
<g>
	<path fill="#BB0000" d="M250,21.4c126.2,0,228.6,102.3,228.6,228.6S376.2,478.6,250,478.6S21.4,376.2,21.4,250S123.8,21.4,250,21.4
		 M250,1.4c-33.5,0-66.1,6.6-96.8,19.5c-29.6,12.5-56.2,30.4-79,53.3s-40.7,49.4-53.3,79C8,183.9,1.4,216.5,1.4,250
		S8,316.1,21,346.8c12.5,29.6,30.4,56.2,53.3,79c22.8,22.8,49.4,40.7,79,53.3c30.7,13,63.2,19.5,96.8,19.5s66.1-6.6,96.8-19.5
		c29.6-12.5,56.2-30.4,79-53.3c22.8-22.8,40.7-49.4,53.3-79c13-30.7,19.5-63.2,19.5-96.8s-6.6-66.1-19.5-96.8
		c-12.5-29.6-30.4-56.2-53.3-79c-22.8-22.8-49.4-40.7-79-53.3C316.1,8,283.5,1.4,250,1.4L250,1.4z"/>
</g>
<g>
	<g>
		<path fill="#BB0000" d="M368.7,178c-7-12.5-14.7-14.8-30.2-15.7c-15.5-1.1-54.6-1.5-88.5-1.5c-33.9,0-73,0.4-88.5,1.5
			c-15.5,0.9-23.2,3.2-30.3,15.7c-7.3,12.5-11,34-11,72c0,0,0,0,0,0c0,0,0,0,0,0v0c0,37.8,3.7,59.5,11,71.8
			c7.1,12.5,14.7,14.8,30.3,15.8c15.5,0.9,54.6,1.4,88.6,1.4c33.9,0,72.9-0.5,88.5-1.4c15.6-1.1,23.2-3.3,30.2-15.8
			c7.3-12.4,11-34.1,11-71.8c0,0,0,0,0-0.1c0,0,0,0,0,0C379.8,212,376.1,190.5,368.7,178z M217.6,298.7v-97.3l81.1,48.7L217.6,298.7
			z"/>
	</g>
</g>
</svg>
