<?xml version="1.0" encoding="utf-8"?>
<!-- Generator: Adobe Illustrator 23.0.3, SVG Export Plug-In . SVG Version: 6.00 Build 0)  -->
<svg version="1.1" id="Camada_1" xmlns="http://www.w3.org/2000/svg" xmlns:xlink="http://www.w3.org/1999/xlink" x="0px" y="0px"
	 viewBox="0 0 200 200" style="enable-background:new 0 0 200 200;" xml:space="preserve">
<style type="text/css">
	.st0{fill:#57555C;}
	.st1{fill:#3C3A41;}
	.st2{fill:#CAE8F9;}
	.st3{fill:#B7E0F6;}
	.st4{fill:#17ACE8;}
	.st5{fill:#1689FC;}
	.st6{fill:#FD4E26;}
	.st7{fill:#FD3018;}
</style>
<g>
	<path class="st0" d="M135,43.6h-9.6l-4.2-6.7c-0.8-1.2-2.2-2-3.7-2h-35c-1.5,0-2.9,0.8-3.7,2l-4.2,6.7H65
		c-7.3,0-13.1,5.9-13.1,13.1v52.6c0,7.3,5.9,13.1,13.1,13.1H135c7.3,0,13.1-5.9,13.1-13.1V56.7C148.2,49.4,142.3,43.6,135,43.6z"/>
	<path class="st1" d="M148.2,56.7v52.6c0,7.3-5.9,13.1-13.1,13.1h-35V34.8h17.5c1.5,0,2.9,0.8,3.7,2l4.2,6.7h9.6
		C142.3,43.6,148.2,49.4,148.2,56.7z"/>
	<path class="st2" d="M100,61.1c-12.1,0-21.9,9.8-21.9,21.9s9.8,21.9,21.9,21.9s21.9-9.8,21.9-21.9S112.1,61.1,100,61.1z"/>
	<g>
		<circle class="st3" cx="126.3" cy="65.5" r="4.4"/>
		<path class="st3" d="M121.9,83c0,12.1-9.8,21.9-21.9,21.9V61.1C112.1,61.1,121.9,70.9,121.9,83z"/>
	</g>
	<path class="st4" d="M100,96.1c-7.2,0-13.1-5.9-13.1-13.1s5.9-13.1,13.1-13.1s13.1,5.9,13.1,13.1S107.2,96.1,100,96.1z"/>
	<path class="st5" d="M113.1,83c0-7.2-5.9-13.1-13.1-13.1v26.3C107.2,96.1,113.1,90.2,113.1,83z"/>
	<path class="st6" d="M100,8.2C58.8,8.2,25.2,41.7,25.2,83c0,41.1,33.6,74.8,74.8,74.8c41.3,0,74.8-33.8,74.8-74.8
		C174.8,41.8,141.1,8.2,100,8.2z M100,149c-36.2,0.1-66.1-29.7-66-66c0-16.7,6.6-32,16.6-43.2L100,89.2l43.2,43.2
		C132,142.4,116.7,149,100,149z M149.4,126.2L56.8,33.6C68,23.6,83.3,17,100,17c36.3,0,66,29.7,66,66
		C166,99.8,159.4,115,149.4,126.2z"/>
	<path class="st7" d="M174.8,83c0,41-33.5,74.8-74.8,74.8V149c16.7,0,32-6.6,43.2-16.6L100,89.2V76.8l49.4,49.4
		C159.4,115,166,99.8,166,83c0-36.3-29.7-66-66-66V8.2C141.1,8.2,174.8,41.8,174.8,83z"/>
</g>
<g>
	<path d="M27,176.9h-5.2v3.6h4.8v2.7h-4.8v5.7h-3.3v-14.7H27V176.9z"/>
	<path d="M34.1,189.1c-1.8,0-3.1-0.5-4.1-1.5c-1-1-1.5-2.3-1.5-4c0-1.7,0.5-3.1,1.6-4.1c1-1,2.4-1.5,4.2-1.5c1.7,0,3.1,0.5,4.1,1.5
		c1,1,1.5,2.3,1.5,3.9c0,1.7-0.5,3.1-1.5,4.1C37.3,188.6,35.9,189.1,34.1,189.1z M34.2,180.6c-0.8,0-1.4,0.3-1.8,0.8
		s-0.6,1.3-0.6,2.2c0,2,0.8,3,2.4,3c1.6,0,2.3-1,2.3-3.1C36.5,181.6,35.7,180.6,34.2,180.6z"/>
	<path d="M48.3,188.8c-0.5,0.3-1.2,0.4-2.2,0.4c-2.3,0-3.4-1.2-3.4-3.6v-4.8H41v-2.4h1.7v-2.3l3.2-0.9v3.2h2.4v2.4h-2.4v4.2
		c0,1.1,0.4,1.6,1.3,1.6c0.3,0,0.7-0.1,1.1-0.3V188.8z"/>
	<path d="M55,189.1c-1.8,0-3.1-0.5-4.1-1.5c-1-1-1.5-2.3-1.5-4c0-1.7,0.5-3.1,1.6-4.1c1-1,2.4-1.5,4.2-1.5c1.7,0,3.1,0.5,4.1,1.5
		c1,1,1.5,2.3,1.5,3.9c0,1.7-0.5,3.1-1.5,4.1C58.2,188.6,56.8,189.1,55,189.1z M55.1,180.6c-0.8,0-1.4,0.3-1.8,0.8s-0.6,1.3-0.6,2.2
		c0,2,0.8,3,2.4,3c1.6,0,2.3-1,2.3-3.1C57.5,181.6,56.7,180.6,55.1,180.6z"/>
	<path d="M72.3,188.9H69v-14.7h3.3V188.9z"/>
	<path d="M85.4,188.9h-3.2V183c0-1.6-0.6-2.4-1.7-2.4c-0.6,0-1,0.2-1.4,0.6s-0.5,1-0.5,1.6v6h-3.2v-10.5h3.2v1.7h0
		c0.8-1.3,1.9-1.9,3.4-1.9c2.3,0,3.5,1.4,3.5,4.3V188.9z"/>
	<path d="M98.3,188.9H95v-1.4h0c-0.7,1.1-1.8,1.7-3.3,1.7c-1.3,0-2.4-0.5-3.2-1.4c-0.8-0.9-1.2-2.2-1.2-3.9c0-1.7,0.4-3.1,1.3-4.2
		s2-1.6,3.5-1.6c1.4,0,2.3,0.5,2.8,1.5h0v-6.2h3.2V188.9z M95.1,183.8V183c0-0.7-0.2-1.3-0.6-1.7c-0.4-0.5-0.9-0.7-1.5-0.7
		c-0.7,0-1.3,0.3-1.7,0.8c-0.4,0.6-0.6,1.3-0.6,2.3c0,0.9,0.2,1.6,0.6,2.1s0.9,0.7,1.6,0.7c0.7,0,1.2-0.3,1.6-0.8
		C94.9,185.3,95.1,184.6,95.1,183.8z"/>
	<path d="M102.7,176.7c-0.5,0-1-0.2-1.3-0.5c-0.3-0.3-0.5-0.7-0.5-1.2c0-0.5,0.2-0.9,0.5-1.2s0.8-0.5,1.3-0.5c0.6,0,1,0.2,1.3,0.5
		c0.3,0.3,0.5,0.7,0.5,1.2c0,0.5-0.2,0.9-0.5,1.2C103.7,176.6,103.2,176.7,102.7,176.7z M104.3,188.9H101v-10.5h3.2V188.9z"/>
	<path d="M106.3,188.6V186c0.5,0.3,1.1,0.6,1.6,0.7c0.5,0.2,1,0.2,1.5,0.2c0.6,0,1-0.1,1.4-0.2c0.3-0.2,0.5-0.4,0.5-0.7
		c0-0.2-0.1-0.4-0.2-0.5c-0.2-0.1-0.3-0.3-0.6-0.4c-0.2-0.1-0.5-0.2-0.8-0.3c-0.3-0.1-0.6-0.2-0.8-0.3c-0.4-0.2-0.8-0.3-1.1-0.5
		c-0.3-0.2-0.6-0.4-0.8-0.6c-0.2-0.2-0.4-0.5-0.5-0.8c-0.1-0.3-0.2-0.7-0.2-1.1c0-0.6,0.1-1.1,0.4-1.5c0.3-0.4,0.6-0.8,1-1
		c0.4-0.3,0.9-0.5,1.5-0.6c0.6-0.1,1.1-0.2,1.7-0.2c0.5,0,0.9,0,1.4,0.1c0.5,0.1,1,0.2,1.4,0.3v2.5c-0.4-0.2-0.8-0.4-1.3-0.5
		c-0.5-0.1-0.9-0.2-1.4-0.2c-0.2,0-0.4,0-0.6,0.1c-0.2,0-0.4,0.1-0.5,0.2c-0.1,0.1-0.3,0.2-0.3,0.3c-0.1,0.1-0.1,0.2-0.1,0.4
		c0,0.2,0.1,0.4,0.2,0.5s0.3,0.3,0.5,0.4c0.2,0.1,0.4,0.2,0.7,0.3c0.2,0.1,0.5,0.2,0.7,0.2c0.4,0.2,0.8,0.3,1.2,0.5
		c0.3,0.2,0.6,0.4,0.9,0.6c0.3,0.2,0.4,0.5,0.6,0.8c0.1,0.3,0.2,0.7,0.2,1.1c0,0.6-0.1,1.2-0.4,1.6c-0.3,0.4-0.6,0.8-1.1,1.1
		c-0.4,0.3-1,0.5-1.5,0.6c-0.6,0.1-1.2,0.2-1.8,0.2C108.3,189.1,107.3,189,106.3,188.6z"/>
	<path d="M119.5,187.7L119.5,187.7l0,6.1h-3.2v-15.3h3.2v1.6h0c0.8-1.2,1.9-1.8,3.4-1.8c1.4,0,2.4,0.5,3.2,1.4
		c0.7,0.9,1.1,2.2,1.1,3.8c0,1.8-0.4,3.2-1.3,4.2c-0.9,1.1-2,1.6-3.5,1.6C121.1,189.1,120.2,188.6,119.5,187.7z M119.4,183.4v0.8
		c0,0.7,0.2,1.3,0.6,1.8s0.9,0.7,1.5,0.7c0.7,0,1.3-0.3,1.7-0.9c0.4-0.6,0.6-1.4,0.6-2.4c0-1.8-0.7-2.8-2.2-2.8
		c-0.7,0-1.2,0.3-1.6,0.8C119.6,181.9,119.4,182.5,119.4,183.4z"/>
	<path d="M134.2,189.1c-1.8,0-3.1-0.5-4.1-1.5c-1-1-1.5-2.3-1.5-4c0-1.7,0.5-3.1,1.6-4.1c1-1,2.4-1.5,4.2-1.5c1.7,0,3.1,0.5,4.1,1.5
		c1,1,1.5,2.3,1.5,3.9c0,1.7-0.5,3.1-1.5,4.1C137.4,188.6,136,189.1,134.2,189.1z M134.3,180.6c-0.8,0-1.4,0.3-1.8,0.8
		c-0.4,0.5-0.6,1.3-0.6,2.2c0,2,0.8,3,2.4,3c1.6,0,2.3-1,2.3-3.1C136.7,181.6,135.9,180.6,134.3,180.6z"/>
	<path d="M152.2,188.9H149V183c0-1.6-0.6-2.4-1.7-2.4c-0.6,0-1,0.2-1.4,0.6s-0.5,1-0.5,1.6v6h-3.2v-10.5h3.2v1.7h0
		c0.8-1.3,1.9-1.9,3.4-1.9c2.3,0,3.5,1.4,3.5,4.3V188.9z"/>
	<path d="M159.7,173.4l-3.2,3.3h-2.3l2.7-3.3H159.7z M158,188.9h-3.2v-10.5h3.2V188.9z"/>
	<path d="M170.7,178.4l-3.9,10.5h-3.7l-3.7-10.5h3.5l1.8,6.5c0.2,0.7,0.3,1.4,0.4,1.9h0c0-0.5,0.2-1.1,0.4-1.8l1.9-6.5H170.7z"/>
	<path d="M181.4,184.6h-6.8c0.1,1.5,1.1,2.3,2.9,2.3c1.2,0,2.2-0.3,3-0.8v2.3c-1,0.5-2.2,0.8-3.8,0.8c-1.7,0-3-0.5-3.9-1.4
		c-0.9-0.9-1.4-2.3-1.4-3.9c0-1.7,0.5-3.1,1.5-4.1s2.3-1.5,3.7-1.5c1.5,0,2.7,0.5,3.6,1.4c0.8,0.9,1.3,2.1,1.3,3.7V184.6z
		 M178.4,182.6c0-1.5-0.6-2.3-1.8-2.3c-0.5,0-1,0.2-1.3,0.6c-0.4,0.4-0.6,1-0.7,1.6H178.4z"/>
	<path d="M186.5,188.9h-3.2v-15.5h3.2V188.9z"/>
</g>
</svg>
